# xmcd
#
# Track frame offsets: 
#        150
#        15128
#        31253
#        45584
#        57315
#        69056
#        82517
#        94334
#        108830
#        122482
#        134815
#        155015
#        170957
#        189424
#        206783
#        221237
#        235553
#        246451
#
# Disc length: 3499 seconds
#
# Revision: 0
# Processed by: cddbd v1.5.2PL0 Copyright (c) Steve Scherf et al.
# Submitted via: ExactAudioCopyFreeDBPlugin 1.0
#
DISCID=f20da912
DTITLE=Various Artist - Träume unserer Heimat
DYEAR=2000
DGENRE=Folk
TTITLE0=Marianne and Michael - Zillertaler Hochzeitsmarsch
TTITLE1=Die Wildecker Herzbuben - Herzilein
TTITLE2=Stefanie Hertel and Stefan Mross - Ein Lied für jeden Sonnenstra
TTITLE2=hl
TTITLE3=Slavko Avsenik - Trompeten-Echo
TTITLE4=Sepp Viellechner - Bergvagabunden
TTITLE5=Gitti and Erika - Aus Böhmen kommt die Musik
TTITLE6=Ernst Mosch und seine Original Egerländer - Liechtensteiner Po
TTITLE6=lka
TTITLE7=Der Montanara Chor - La Montanara
TTITLE8=Astrid Harzbecker - Das Rennsteig-Lied
TTITLE9=Ernst Mosch und seine Original egerländer - Drei weiße Birken
TTITLE10=Vico Torriani - La Pastorella
TTITLE11=Franzl Lang - Der Könogsjodler
TTITLE12=Heino - Blau blüht der Enzian
TTITLE13=Lydia Huber - Das Kufsteiner Lied
TTITLE14=Willi Seiotz - Patrona Bavariae (Version '98)
TTITLE15=Hansl Krönauer - Schützenliesl
TTITLE16=Hansi and Maxi Arland - Schneewalzer
TTITLE17=Zillertaler Schürzenjäger - SierraMadre
EXTD=
EXTT0=
EXTT1=
EXTT2=
EXTT3=
EXTT4=
EXTT5=
EXTT6=
EXTT7=
EXTT8=
EXTT9=
EXTT10=
EXTT11=
EXTT12=
EXTT13=
EXTT14=
EXTT15=
EXTT16=
EXTT17=
PLAYORDER=
